<svg width="143" height="52" viewBox="0 0 143 52" fill="none" xmlns="http://www.w3.org/2000/svg">
<path d="M69.726 4.4V17H68.412V5.552H60.438V17H59.124V4.4H69.726ZM73.9775 4.4H75.2915V14.84L83.3555 4.4H84.5615V17H83.2475V6.578L75.1835 17H73.9775V4.4ZM101.053 15.848V19.952H99.8115V17H88.8135V4.4H90.1275V15.848H97.7415V4.4H99.0555V15.848H101.053ZM115.942 15.848V19.952H114.7V17H103.702V4.4H105.016V15.848H112.63V4.4H113.944V15.848H115.942ZM126.69 13.634H119.67L118.158 17H116.772L122.532 4.4H123.846L129.606 17H128.202L126.69 13.634ZM126.204 12.554L123.18 5.786L120.156 12.554H126.204Z" fill="#DADADA"/>
<path d="M64.34 30.4C65.66 30.4 66.7067 30.7867 67.48 31.56C68.2667 32.32 68.66 33.4333 68.66 34.9V41H67.24V35.04C67.24 33.9467 66.9667 33.1133 66.42 32.54C65.8733 31.9667 65.0933 31.68 64.08 31.68C62.9467 31.68 62.0467 32.02 61.38 32.7C60.7267 33.3667 60.4 34.2933 60.4 35.48V41H58.98V26.16H60.4V32.32C60.7867 31.7067 61.32 31.2333 62 30.9C62.68 30.5667 63.46 30.4 64.34 30.4ZM76.8542 41.1C75.8409 41.1 74.9276 40.8733 74.1142 40.42C73.3009 39.9533 72.6609 39.3133 72.1942 38.5C71.7276 37.6867 71.4942 36.7667 71.4942 35.74C71.4942 34.7133 71.7276 33.7933 72.1942 32.98C72.6609 32.1667 73.3009 31.5333 74.1142 31.08C74.9276 30.6267 75.8409 30.4 76.8542 30.4C77.8676 30.4 78.7809 30.6267 79.5942 31.08C80.4076 31.5333 81.0409 32.1667 81.4942 32.98C81.9609 33.7933 82.1942 34.7133 82.1942 35.74C82.1942 36.7667 81.9609 37.6867 81.4942 38.5C81.0409 39.3133 80.4076 39.9533 79.5942 40.42C78.7809 40.8733 77.8676 41.1 76.8542 41.1ZM76.8542 39.84C77.6009 39.84 78.2676 39.6733 78.8542 39.34C79.4542 38.9933 79.9209 38.5067 80.2542 37.88C80.5876 37.2533 80.7542 36.54 80.7542 35.74C80.7542 34.94 80.5876 34.2267 80.2542 33.6C79.9209 32.9733 79.4542 32.4933 78.8542 32.16C78.2676 31.8133 77.6009 31.64 76.8542 31.64C76.1076 31.64 75.4342 31.8133 74.8342 32.16C74.2476 32.4933 73.7809 32.9733 73.4342 33.6C73.1009 34.2267 72.9342 34.94 72.9342 35.74C72.9342 36.54 73.1009 37.2533 73.4342 37.88C73.7809 38.5067 74.2476 38.9933 74.8342 39.34C75.4342 39.6733 76.1076 39.84 76.8542 39.84ZM94.5733 30.48V41H93.2133V39.08C92.8399 39.72 92.3266 40.22 91.6733 40.58C91.0199 40.9267 90.2733 41.1 89.4333 41.1C88.0599 41.1 86.9733 40.72 86.1733 39.96C85.3866 39.1867 84.9933 38.06 84.9933 36.58V30.48H86.4133V36.44C86.4133 37.5467 86.6866 38.3867 87.2333 38.96C87.7799 39.5333 88.5599 39.82 89.5733 39.82C90.6799 39.82 91.5533 39.4867 92.1933 38.82C92.8333 38.14 93.1533 37.2 93.1533 36V30.48H94.5733ZM101.37 41.1C100.517 41.1 99.697 40.98 98.9103 40.74C98.137 40.4867 97.5303 40.1733 97.0903 39.8L97.7303 38.68C98.1703 39.0267 98.7236 39.3133 99.3903 39.54C100.057 39.7533 100.75 39.86 101.47 39.86C102.43 39.86 103.137 39.7133 103.59 39.42C104.057 39.1133 104.29 38.6867 104.29 38.14C104.29 37.7533 104.164 37.4533 103.91 37.24C103.657 37.0133 103.337 36.8467 102.95 36.74C102.564 36.62 102.05 36.5067 101.41 36.4C100.557 36.24 99.8703 36.08 99.3503 35.92C98.8303 35.7467 98.3836 35.46 98.0103 35.06C97.6503 34.66 97.4703 34.1067 97.4703 33.4C97.4703 32.52 97.837 31.8 98.5703 31.24C99.3036 30.68 100.324 30.4 101.63 30.4C102.31 30.4 102.99 30.4933 103.67 30.68C104.35 30.8533 104.91 31.0867 105.35 31.38L104.73 32.52C103.864 31.92 102.83 31.62 101.63 31.62C100.724 31.62 100.037 31.78 99.5703 32.1C99.117 32.42 98.8903 32.84 98.8903 33.36C98.8903 33.76 99.017 34.08 99.2703 34.32C99.537 34.56 99.8636 34.74 100.25 34.86C100.637 34.9667 101.17 35.08 101.85 35.2C102.69 35.36 103.364 35.52 103.87 35.68C104.377 35.84 104.81 36.1133 105.17 36.5C105.53 36.8867 105.71 37.42 105.71 38.1C105.71 39.02 105.324 39.7533 104.55 40.3C103.79 40.8333 102.73 41.1 101.37 41.1ZM117.495 36.18H108.695C108.775 37.2733 109.195 38.16 109.955 38.84C110.715 39.5067 111.675 39.84 112.835 39.84C113.489 39.84 114.089 39.7267 114.635 39.5C115.182 39.26 115.655 38.9133 116.055 38.46L116.855 39.38C116.389 39.94 115.802 40.3667 115.095 40.66C114.402 40.9533 113.635 41.1 112.795 41.1C111.715 41.1 110.755 40.8733 109.915 40.42C109.089 39.9533 108.442 39.3133 107.975 38.5C107.509 37.6867 107.275 36.7667 107.275 35.74C107.275 34.7133 107.495 33.7933 107.935 32.98C108.389 32.1667 109.002 31.5333 109.775 31.08C110.562 30.6267 111.442 30.4 112.415 30.4C113.389 30.4 114.262 30.6267 115.035 31.08C115.809 31.5333 116.415 32.1667 116.855 32.98C117.295 33.78 117.515 34.7 117.515 35.74L117.495 36.18ZM112.415 31.62C111.402 31.62 110.549 31.9467 109.855 32.6C109.175 33.24 108.789 34.08 108.695 35.12H116.155C116.062 34.08 115.669 33.24 114.975 32.6C114.295 31.9467 113.442 31.62 112.415 31.62Z" fill="#DADADA"/>
<g clip-path="url(#clip0)">
<path d="M13.2323 25.8649C13.4839 25.7332 13.7878 25.7526 14.0206 25.9145L17.8511 28.5789C18.0558 28.7213 18.178 28.9554 18.178 29.205V40.6411C18.178 42.1177 16.9767 43.3186 15.5004 43.3186C14.0242 43.3186 12.8229 42.1177 12.8229 40.6411V26.5405C12.8229 26.2569 12.9808 25.9962 13.2323 25.8649Z" fill="#FFEBA1"/>
<path d="M21.7399 31.7831C21.9918 31.6514 22.2953 31.6708 22.5286 31.8327L26.3586 34.4971C26.5638 34.6396 26.6855 34.8736 26.6855 35.1232V39.0242C26.6855 40.5004 25.4846 41.7017 24.008 41.7017C22.5318 41.7017 21.3305 40.5004 21.3305 39.0242V32.4587C21.3305 32.1747 21.4884 31.9144 21.7399 31.7831Z" fill="#FFEBA1"/>
<path d="M35.9574 41.6726C36.2094 41.5412 36.5129 41.5603 36.7461 41.7225L40.5762 44.3866C40.7809 44.5294 40.9031 44.7631 40.9031 45.0126V49.3227C40.9031 50.7989 39.7022 52.0002 38.2255 52.0002C36.7493 52.0002 35.548 50.7989 35.548 49.3227V42.3486C35.548 42.0645 35.7059 41.8043 35.9574 41.6726Z" fill="#FFEBA1"/>
<path d="M13.2324 25.8649C13.484 25.7332 13.7879 25.7526 14.0207 25.9145L15.5005 26.944V40.6411C15.5005 41.6301 16.0397 42.495 16.8391 42.9584C16.4452 43.1873 15.9881 43.3186 15.5005 43.3186C14.0243 43.3186 12.823 42.1177 12.823 40.6411V26.5405C12.823 26.2569 12.9809 25.9962 13.2324 25.8649Z" fill="#F7D36F"/>
<path d="M21.7399 31.7831C21.9918 31.6514 22.2953 31.6708 22.5286 31.8327L24.008 32.8622V39.0242C24.008 40.0133 24.5475 40.8777 25.3469 41.3415C24.9526 41.57 24.4955 41.7017 24.008 41.7017C22.5317 41.7017 21.3304 40.5008 21.3304 39.0242V32.4587C21.3304 32.1747 21.4883 31.9144 21.7399 31.7831Z" fill="#F7D36F"/>
<path d="M35.9576 41.6726C36.2096 41.5412 36.5131 41.5603 36.7463 41.7225L38.2257 42.7517V49.3227C38.2257 50.3113 38.7653 51.1762 39.5647 51.64C39.1703 51.8685 38.7133 51.9998 38.2257 51.9998C36.7495 51.9998 35.5482 50.7989 35.5482 49.3227V42.3482C35.5482 42.0645 35.7061 41.8043 35.9576 41.6726Z" fill="#F7D36F"/>
<path d="M9.27228 23.5403C9.37265 23.3963 9.44803 23.24 9.49564 23.077C9.50159 23.0579 10.0808 21.1262 12.0831 18.3781C13.9779 15.7779 17.5175 12.0054 23.6196 8.80065C29.7221 5.59587 34.8367 4.82304 38.053 4.73933C41.4502 4.64967 43.3708 5.26976 43.3898 5.27611C43.5497 5.32847 43.7183 5.35505 43.8917 5.35505C43.8953 5.35505 43.8992 5.35505 43.902 5.35505C44.1031 5.35505 44.2963 5.4344 44.4388 5.57603C44.5828 5.71846 44.6637 5.91206 44.6645 6.11439L44.8379 47.7464C44.8391 48.0308 44.682 48.2923 44.43 48.4248C44.3186 48.4831 44.1968 48.5121 44.0758 48.5121C43.9226 48.5121 43.7703 48.4661 43.6402 48.3756L9.46311 24.6016C9.11756 24.3612 9.03186 23.8859 9.27228 23.5403Z" fill="#FFDB57"/>
<path d="M44.43 48.4249C44.3186 48.4836 44.1972 48.5122 44.0758 48.5122C43.9226 48.5122 43.7703 48.4662 43.6402 48.3757L9.46311 24.6017C9.11755 24.3613 9.03226 23.886 9.27267 23.5405C9.37265 23.3965 9.44803 23.2401 9.49604 23.0771C9.49961 23.0644 9.76819 22.1714 10.5636 20.7419L44.8244 44.4961L44.8379 47.7469C44.8391 48.031 44.682 48.2928 44.43 48.4249Z" fill="#F6C134"/>
<path d="M31.7053 16.2383C34.3419 16.2383 36.4871 18.3834 36.4871 21.0197C36.4871 23.6563 34.3419 25.801 31.7053 25.801C29.0686 25.801 26.9239 23.6563 26.9239 21.0197C26.9239 18.383 29.0686 16.2383 31.7053 16.2383Z" fill="#F2433B"/>
<path d="M31.7053 22.4415C33.7508 22.4415 35.5 21.1497 36.1816 19.3398C36.3784 19.8627 36.4871 20.4285 36.4871 21.0196C36.4871 23.6563 34.3419 25.801 31.7057 25.801C29.069 25.801 26.9239 23.6563 26.9239 21.0196C26.9239 20.4289 27.0326 19.8627 27.2294 19.3398C27.911 21.1497 29.6597 22.4415 31.7053 22.4415Z" fill="#D83636"/>
<path d="M40.6553 24.0461C41.5313 23.1499 42.7032 22.6389 43.9553 22.608C44.1596 22.6052 44.3584 22.6806 44.5055 22.823C44.6523 22.9658 44.7356 23.1618 44.7364 23.3669L44.7698 31.4007C44.771 31.6058 44.6892 31.8022 44.5432 31.9462C44.4004 32.0874 44.208 32.1664 44.0076 32.1664H43.9949C41.4027 32.1231 39.2941 29.9788 39.2941 27.3866C39.2941 26.1305 39.7777 24.9439 40.6553 24.0461Z" fill="#F2433B"/>
<path d="M43.9948 28.759C43.9992 28.7594 44.0031 28.7594 44.0075 28.7594C44.2078 28.7594 44.4003 28.6805 44.5435 28.5392C44.6542 28.4297 44.728 28.2897 44.7565 28.1389L44.77 31.4008C44.7708 31.6059 44.6891 31.8023 44.5435 31.9463C44.4007 32.0876 44.2082 32.1665 44.0075 32.1665H43.9948C41.403 32.1233 39.2944 29.979 39.2944 27.3867C39.2944 26.7928 39.4035 26.2152 39.6102 25.676C40.2905 27.4462 41.9989 28.7261 43.9948 28.759Z" fill="#D83636"/>
<path d="M20.5799 23.9797C23.2166 23.9797 25.3613 26.1249 25.3613 28.7611C25.3613 30.7019 24.2025 32.436 22.4093 33.1795C22.3152 33.2184 22.2161 33.2374 22.1173 33.2374C21.9637 33.2374 21.8118 33.1914 21.6821 33.1009L16.129 29.2384C15.9164 29.09 15.793 28.844 15.8025 28.5846C15.8966 26.0023 17.9953 23.9797 20.5799 23.9797Z" fill="#F2433B"/>
<path d="M14.3105 15.7129C15.803 14.1367 17.5295 12.662 19.4429 11.3302C19.6262 11.2029 19.8552 11.1624 20.0706 11.2179C22.1756 11.7654 23.6455 13.6685 23.6455 15.8454C23.6455 18.482 21.5004 20.6272 18.8641 20.6272C16.3889 20.6272 14.343 18.7713 14.1053 16.3103C14.0843 16.0906 14.1589 15.8728 14.3105 15.7129Z" fill="#F2433B"/>
<path d="M14.9361 15.0728C15.801 16.3178 17.2399 17.1164 18.8641 17.1164C20.8819 17.1164 22.6104 15.8595 23.3115 14.0881C23.5277 14.6356 23.6455 15.2295 23.6455 15.8452C23.6455 18.4819 21.5004 20.6266 18.8641 20.6266C16.3889 20.6266 14.343 18.7711 14.1053 16.3098C14.0843 16.0904 14.1589 15.8726 14.3105 15.7123C14.5144 15.4973 14.7235 15.2843 14.9361 15.0728Z" fill="#D83636"/>
<path d="M30.5069 6.36542C30.5776 6.10517 30.7799 5.90204 31.0397 5.82984C33.4435 5.16492 35.8029 4.79794 38.0531 4.73923C38.215 4.73486 38.3725 4.73288 38.5272 4.73169C38.5292 4.73169 38.5312 4.73169 38.5332 4.73169C38.7958 4.73169 39.0406 4.86697 39.1798 5.09033C39.6531 5.84848 39.9031 6.72287 39.9031 7.61829C39.9031 10.255 37.758 12.3997 35.1217 12.3997C32.485 12.3997 30.3399 10.255 30.3399 7.61829C30.3399 7.19578 30.3962 6.77445 30.5069 6.36542Z" fill="#F2433B"/>
<path d="M30.7279 6.00504C31.4607 7.70701 33.1539 8.90195 35.1217 8.90195C37.1414 8.90195 38.8716 7.64234 39.571 5.86816C39.7892 6.42279 39.9031 7.01551 39.9031 7.61853C39.9031 10.2552 37.758 12.4003 35.1217 12.4003C32.485 12.4003 30.3403 10.2552 30.3403 7.61853C30.3403 7.19641 30.3962 6.77469 30.5073 6.36566C30.5454 6.22443 30.6236 6.10065 30.7279 6.00504Z" fill="#D83636"/>
<path d="M28.509 37.1199C29.2517 35.3247 30.9862 34.165 32.9282 34.165C35.5648 34.165 37.71 36.3098 37.71 38.9464C37.71 40.2727 37.151 41.5513 36.177 42.4539C36.0314 42.5884 35.8457 42.657 35.6585 42.657C35.5069 42.657 35.355 42.6122 35.2233 42.5206L28.778 38.0371C28.484 37.8328 28.3721 37.4511 28.509 37.1199Z" fill="#F2433B"/>
<path d="M4.94991 21.7411C5.07011 21.3313 8.04876 11.6305 21.4074 4.61077C21.4126 4.60799 21.4173 4.60521 21.4225 4.60283C34.7863 -2.41293 44.465 0.641885 44.8704 0.775186C46.5105 1.31474 47.4059 3.08852 46.8664 4.7286C46.6049 5.52324 46.0499 6.16833 45.3032 6.54522C44.5566 6.92251 43.7076 6.98599 42.9221 6.72732C42.9046 6.72176 41.1328 6.18459 38.0927 6.26354C35.0383 6.34328 30.1712 7.08239 24.3286 10.1507C18.4859 13.219 15.1149 16.8066 13.3157 19.2759C11.5249 21.7336 10.9619 23.4979 10.9592 23.5062C10.7231 24.3088 10.1891 24.9713 9.45477 25.372C8.98782 25.6271 8.47604 25.7564 7.9587 25.7564C7.66234 25.7564 7.364 25.714 7.07161 25.6279C6.26903 25.3922 5.60649 24.8579 5.2054 24.1235C4.8051 23.3896 4.71425 22.5433 4.94991 21.7411Z" fill="#FF9F34"/>
<path d="M6.7753 23.2882C6.77847 23.2779 7.44974 21.1756 9.58335 18.2469C11.7277 15.3044 15.745 11.0293 22.7072 7.37259C29.6698 3.71634 35.4695 2.8356 39.1091 2.74038C42.7325 2.64636 44.8435 3.28668 44.8645 3.29342C45.5608 3.52234 46.2987 3.539 46.9969 3.34738C47.056 3.79806 47.0179 4.26858 46.8664 4.72839C46.6049 5.52304 46.0499 6.16812 45.3033 6.54502C44.5566 6.92231 43.7076 6.98578 42.9221 6.72712C42.9047 6.72156 41.1329 6.18439 38.0927 6.26334C35.0383 6.34308 30.1712 7.08219 24.3286 10.1505C18.486 13.2188 15.1149 16.8064 13.3158 19.2757C11.5249 21.7334 10.962 23.4977 10.9592 23.506C10.7232 24.3086 10.1892 24.9711 9.45481 25.3718C8.98786 25.6269 8.47608 25.7562 7.95874 25.7562C7.66239 25.7562 7.36405 25.7138 7.07166 25.6277C6.59082 25.4865 6.16037 25.2373 5.80609 24.9025C6.25797 24.4617 6.59241 23.9107 6.7753 23.2882Z" fill="#FB8F2D"/>
<path d="M22.4092 33.1796C22.3152 33.2185 22.216 33.2375 22.1172 33.2375C21.9637 33.2375 21.8117 33.1915 21.682 33.101L16.129 29.2385C15.9164 29.0901 15.793 28.8441 15.8025 28.5847C15.8489 27.3143 16.3809 26.1801 17.2168 25.3545L24.9463 30.7139C24.4583 31.8077 23.5661 32.7 22.4092 33.1796Z" fill="#D83636"/>
<path d="M36.1765 42.4539C36.0313 42.5883 35.8452 42.657 35.6584 42.657C35.5068 42.657 35.3545 42.6121 35.2232 42.5205L28.7779 38.0371C28.4839 37.8327 28.3721 37.4507 28.5089 37.1198C28.9485 36.057 29.736 35.2171 30.7084 34.7085L37.6714 39.5363C37.5321 40.646 37.0053 41.6862 36.1765 42.4539Z" fill="#D83636"/>
</g>
<defs>
<clipPath id="clip0">
<rect width="52" height="52" fill="white" transform="matrix(-1 0 0 1 52 0)"/>
</clipPath>
</defs>
</svg>
