<svg width="6" height="9" viewBox="0 0 6 9" fill="none" xmlns="http://www.w3.org/2000/svg">
<path d="M5.67969 9H0.0488281V8.16211L2.30469 5.89453C2.99219 5.19922 3.44531 4.70312 3.66406 4.40625C3.88281 4.10938 4.04688 3.82031 4.15625 3.53906C4.26562 3.25781 4.32031 2.95508 4.32031 2.63086C4.32031 2.17383 4.18164 1.8125 3.9043 1.54688C3.62695 1.27734 3.24219 1.14258 2.75 1.14258C2.39453 1.14258 2.05664 1.20117 1.73633 1.31836C1.41992 1.43555 1.06641 1.64844 0.675781 1.95703L0.160156 1.29492C0.949219 0.638672 1.80859 0.310547 2.73828 0.310547C3.54297 0.310547 4.17383 0.517578 4.63086 0.931641C5.08789 1.3418 5.31641 1.89453 5.31641 2.58984C5.31641 3.13281 5.16406 3.66992 4.85938 4.20117C4.55469 4.73242 3.98438 5.4043 3.14844 6.2168L1.27344 8.05078V8.09766H5.67969V9Z" fill="#FF2321"/>
</svg>
